/* XPM */
static char *PSX_128x64[] = {
/* columns rows colors chars-per-pixel */
"128 64 2 1 ",
"  c black",
". c white",
/* pixels */
"                                                                                                                                ",
"                                                                                                                                ",
"                                                            ....     ....  ...   .....  ........                                ",
"                                                            .....   ...... ...  ....... .........                               ",
"                                                            .....   ...... ... ........ .........                               ",
"                                                           ......   .....      ....  ..    ...    ...   ..   ..                 ",
"                                                           ... ..  ...... ...  ....       ....  ......  .......                 ",
"                                                           ... ..  .. ... .... ......     .... .... ... ......                  ",
"                                                           ... .. ... ... ...   ......    .... ...  ... ....                    ",
"                                                          .... .. .. .... ...     ....    ...  .......  ...   ... ..   ..  ...  ",
"                                                          ...  ..... ...  ... ..   ...   ....  .....    ...   .   . . .  . . .  ",
"                                                          ...  ....  ... .... ... ....   ....  ...   . ....   ... ..  .    ...  ",
"                                                          ...  ....  ... .... ........   ....  ....... ....   .   .   . .. . .  ",
"                                                          ...  ....  ...  ...  ......     ...   .....   ..    .   .    ..  . .  ",
"                                                                                                                                ",
"                                                                                                                                ",
"................................................................................................................................",
"..........................................................   ...................................................................",
"..........................................................      ................................................................",
"..........................................................          ............................................................",
"..........................................................             .........................................................",
"..........................................................                ......................................................",
"..........................................................                  ....................................................",
"..........................................................                   ...................................................",
"..........................................................         ...        ..................................................",
"..........................................................         ....        .................................................",
"..........................................................         ....         ................................................",
"..........................................................         ....         ................................................",
"..........................................................         ....          ...............................................",
"..........................................................         ....          ...............................................",
"..........................................................         ....          ...............................................",
"..........................................................         ....          ...............................................",
"..........................................................         ....          ...............................................",
"..........................................................         ....          ...............................................",
"..........................................................         ....          ...............................................",
"..........................................................         ....          ...............................................",
"..........................................................         ....          ...............................................",
"..........................................................         ....          ...............................................",
"..........................................................         ....          ...............................................",
"..........................................................         ....          ...............................................",
"..........................................................         ....         ................................................",
"..........................................................         ....         ................................................",
"..........................................................         .....       .................................................",
"..........................................................         .............................................................",
".....................................................  ...         .............................................................",
".................................................      ...         .............................................................",
"...............................................        ...         ......              .........................................",
"............................................           ...         ...                    ......................................",
"..........................................             ...         ..                       ....................................",
".......................................             ......         ..          .......        ..................................",
".....................................             ........         ..       ..........        ..................................",
"....................................            ..........         ..     ...........         ..................................",
"....................................         .............         ..  ...........            ..................................",
"....................................        .......... ...         .............             ...................................",
"....................................        .......    ...         ...........             .....................................",
"......................................                 ...         ........             ........................................",
".........................................              ...         .....             ...........................................",
"............................................           ...         ..              .............................................",
"..........................................................         ..            ........  .....................................",
"..........................................................         ..        ........... .  ....................................",
"..........................................................         ..     ..............  . ....................................",
"..............................................................     ..   .................  .....................................",
".................................................................  .............................................................",
"................................................................................................................................"
};
